<?xml version="1.0" encoding="utf-8"?>
<!-- Generator: Adobe Illustrator 24.0.1, SVG Export Plug-In . SVG Version: 6.00 Build 0)  -->
<svg version="1.1" id="Layer_1" xmlns="http://www.w3.org/2000/svg" xmlns:xlink="http://www.w3.org/1999/xlink" x="0px" y="0px"
	 viewBox="0 0 600 600" style="enable-background:new 0 0 600 600;" xml:space="preserve">
<style type="text/css">
	.st0{display:none;fill:#FFFFFF;}
	.st1{fill:#A9BECE;}
	.st2{fill:#FFFFFF;}
	.st3{fill:#B8C7E6;}
	.st4{fill:#303030;}
</style>
<rect x="0" y="-0.3" class="st0" width="600" height="600"/>
<g>
	<g>
		<path class="st1" d="M464.2,422.6c6.6-11.4,11.4-24.8,14-38.5c2.6-13.7,3-27.6,2.3-40.5c-0.6-6.4-1-12.6-2.1-18.4
			c-0.5-2.9-1-5.7-1.4-8.4c-0.5-2.8-1.3-5.5-2-8c-0.5-1.8-1.1-3.5-1.7-5.2c0-0.3,0-0.6,0-0.9l0-1.1l0.1-1.4c0.1-0.9,0.1-1.9,0.2-2.8
			c1-15,1.9-32.4,3.5-51c0.8-9.3,1.8-18.9,2.6-28.9c0.7-10,1.2-20.2,0.3-30.9c-0.3-2.7-0.6-5.4-1.2-8.1c-0.6-2.7-1.4-5.5-2.6-8.3
			c-1.3-2.8-3-5.7-5.8-8.2c-2.7-2.5-6.6-4-10.1-4.3c-3.2-0.4-6.8,0-9.9,1.2c-3.2,1.2-5.9,3.1-8.1,5.2c-2.2,2.1-3.9,4.4-5.4,6.7
			c-1.5,2.3-2.6,4.7-3.7,7c-4.1,9.4-6.1,18.5-7.8,27.1c-1.6,8.2-2.7,16-3.6,23.2c-0.2-6.7-0.6-13.8-1-21.3c-0.5-9-1.1-18.6-2.1-28.6
			c-1-9.9-2.4-20.3-5-30.8c-1.4-5.3-3-10.6-5.6-15.9c-1.3-2.6-2.8-5.3-4.9-7.8c-2-2.5-4.7-4.9-8-6.6c-3.3-1.7-7.4-2.3-10.8-2
			c-3.4,0.3-6.9,1.2-10,3c-3.1,1.8-5.6,4.2-7.6,6.8c-2,2.6-3.4,5.3-4.6,8c-0.2,0.5-0.4,1.1-0.6,1.6c-0.2-0.8-0.4-1.6-0.6-2.5
			c-1.4-5.6-3.2-11.4-6.5-17c-1.6-2.8-3.7-5.6-6.5-8.1c-2.8-2.4-6.6-4.3-10.6-4.9c-1-0.1-2-0.2-2.9-0.2l-2.7,0.1
			c-1.8,0.2-3.6,0.5-5.4,1.1c-3.6,1.1-6.8,3.2-9.4,5.6c-2.6,2.4-4.5,5.2-6.2,8c-1.6,2.8-2.8,5.6-3.9,8.4c-2,5.7-3.4,11.3-4.3,16.8
			c-1,5.5-1.6,10.9-2.1,16.3c-1,10.6-1.3,20.8-1.6,30.4c-0.2,9.6-0.4,18.7-0.6,27c-0.2,14.5-0.3,26.9-0.1,36.3
			c-1.5-9-3.8-20.6-6.7-34.1c-1.7-8-3.6-16.7-6-25.9c-2.4-9.2-5.1-18.8-9-28.7c-1.9-4.9-4.1-9.9-6.9-14.9
			c-2.9-4.9-6.2-9.9-11.6-14.1c-2.7-2-6.1-3.8-9.9-4.4c-1-0.2-1.9-0.3-2.9-0.3c-1,0-1.9,0-2.9,0.1c-1,0.1-1.9,0.2-2.7,0.5
			c-0.8,0.2-1.7,0.4-2.5,0.7c-3.4,1.1-6.6,3.1-9.2,5.7c-2.6,2.5-4.5,5.5-5.9,8.5c-2.7,6-3.7,12.1-4.2,17.9c-0.5,5.8-0.4,11.5-0.1,17
			c0.6,11.1,2.2,21.7,3.9,31.9c3.4,20.3,7.2,38.9,10.5,55c2.4,11.5,4.5,21.5,6.5,29.7c0.3,2.6,0.5,5.4,0.8,8.2
			c0.3,4.1,0.6,8.5,0.5,13c0,2.2-0.2,4.5-0.6,6.4c-0.2,0.6-0.5,1.5-1.2,1.3c-0.3,0-0.6-0.1-1-0.3c-0.7-0.2-1.8-0.9-2.8-1.4
			c-2-1.3-4.1-2.7-6.2-4.4c-4.2-3.3-8.5-7-13-11c-4.4-4-9-8-13.6-12.2c-2.4-2.1-4.7-4.2-7.1-6.3c-1.2-1.1-2.4-2.1-3.7-3.2
			c-1.4-1.1-2.7-2.2-4.2-3.2c-5.7-4.2-12.6-7.6-20.2-9c-7.6-1.5-16-0.6-23.4,2.9c-3.7,1.7-7.1,4-10,6.9c-3,2.8-5.6,6.2-7.3,10.2
			c-1.8,3.9-3,8.7-1.8,14c0.3,1.3,0.8,2.6,1.4,3.8l1.6,2.7c0.5,0.9,1.1,1.7,1.7,2.5c0.6,0.8,1.1,1.6,1.7,2.4
			c4.8,5.9,10,10.7,15,15.5c5,4.8,10,9.4,14.8,14.1c9.5,9.4,18.2,19.2,25.3,29.5c0.9,1.3,1.8,2.6,2.7,3.9c0.9,1.3,1.8,2.7,2.7,4
			c1.8,2.7,3.7,5.3,5.5,7.9c3.7,5.2,7.5,10.1,11.4,14.7c7.7,9.4,15.7,17.7,23.6,24.8c7.9,7.1,16,12.8,23.6,17.1
			c5.7,3.2,11.1,5.7,16,7.4c-0.6,0.7-1.2,1.5-1.7,2.4c-0.9,1.5-1.6,3.4-2,5.3c-0.3,2.2-0.3,3.9,0,5.8c0.2,1.9,0.8,3.8,1.5,5.7
			c0.8,1.8,1.9,3.6,3.1,5.2c2.5,3.2,5.7,5.7,9,7.7c6.7,4,14.2,6.3,21.9,8.1c15.4,3.4,31.9,4.4,48.2,4.4c16.3,0,32.8-1,48.2-4.4
			c7.7-1.8,15.2-4.1,21.9-8.1c3.4-2,6.5-4.4,9.1-7.6c1.3-1.5,2.3-3.3,3.2-5.1c0.8-1.9,1.4-3.8,1.6-5.7c0.2-1,0.2-1.9,0.2-2.8
			c0.1-0.9-0.1-1.9-0.2-3c-0.4-2-1.1-3.9-2-5.4c-0.6-1.1-1.4-2-2.1-2.9c3.5-2.2,7.2-4.9,11-8.3C449.5,443.4,457.7,434,464.2,422.6z
			 M297.8,270.3c-0.1-0.5-0.3-1.1-0.4-1.6c0.2,0.6,0.5,1.1,0.7,1.5C298,270.2,297.9,270.2,297.8,270.3z"/>
	</g>
	<g>
		<g>
			<g>
				<path class="st2" d="M267.1,464.7c0,21.4,35.7,28.6,79.7,28.6c44,0,79.7-7.1,79.7-28.6c0-15.8-35.7-28.6-79.7-28.6
					C302.8,436.1,267.1,448.9,267.1,464.7z"/>
			</g>
			<g>
				<path class="st3" d="M272.6,456.6c0,14,33.2,18.7,74.1,18.7c40.9,0,74.1-4.7,74.1-18.7c0-10.3-33.2-18.7-74.1-18.7
					C305.8,438,272.6,446.3,272.6,456.6z"/>
			</g>
			<g>
				<g>
					<path class="st4" d="M276.1,454.2c3.1-3,6.7-5.2,9.6-6.9c5.9-3.5,9.6-5.3,9.3-6.3c-0.3-0.9-4.5-0.8-11.5,1.4
						c-3.5,1.2-7.7,2.8-12.2,6.1c-2.2,1.6-4.5,3.7-6.4,6.8c-0.9,1.5-1.6,3.4-2,5.3c-0.3,2.2-0.3,3.9,0,5.8c0.2,1.9,0.8,3.8,1.5,5.7
						c0.8,1.8,1.9,3.6,3.1,5.2c2.5,3.2,5.7,5.7,9,7.7c6.7,4,14.2,6.3,21.9,8.1c15.4,3.4,31.9,4.4,48.2,4.4c16.3,0,32.8-1,48.2-4.4
						c7.7-1.8,15.2-4.1,21.9-8.1c3.4-2,6.5-4.4,9.1-7.6c1.3-1.5,2.3-3.3,3.2-5.1c0.8-1.9,1.4-3.8,1.6-5.7c0.2-1,0.2-1.9,0.2-2.8
						c0.1-0.9-0.1-1.9-0.2-3c-0.4-2-1.1-3.9-2-5.4c-1.8-3.1-4.1-5.2-6.3-6.8c-4.5-3.3-8.7-4.9-12.2-6.1c-7-2.3-11.2-2.3-11.5-1.4
						c-0.3,1,3.4,2.9,9.3,6.3c2.9,1.8,6.5,3.9,9.6,6.9c1.5,1.5,2.9,3.2,3.7,5c0.8,1.8,0.8,3.3,0.3,5.7c-0.9,4.3-4.5,8-9.9,10.8
						c-5.4,2.8-12,4.7-19.1,6c-14.2,2.6-30.1,3.4-45.9,3.4c-15.8,0-31.7-0.8-45.9-3.4c-7-1.4-13.7-3.2-19.1-6
						c-5.4-2.8-9-6.5-9.8-10.8c-0.3-1-0.3-2.3-0.3-3c0.1-0.8,0.3-1.7,0.7-2.6C273.1,457.4,274.5,455.7,276.1,454.2z"/>
				</g>
			</g>
			<g>
				<path class="st2" d="M346.8,476.3c75,0,138.1-56.2,120.2-162.4c-5.8-34.4-60.1-55.9-120.2-55.9c-49.6,0-88.6,10.8-107.5,51.6
					c7.2,25.8-14,36.2-14,57.5C225.3,427.4,279.7,476.3,346.8,476.3z"/>
			</g>
			<g>
				<path class="st2" d="M183.5,287.9c-34.5-29.2-64.8,2.7-57.2,17.8c8.2,16.3,38.8,34.2,61.8,69.6c56.5,87,96.8,72.9,101,81.8
					c15.9-30-47.2-135.2-47.2-135.2C236.1,335.9,218,317.1,183.5,287.9z"/>
			</g>
			<g>
				<g>
					<path class="st4" d="M450,411c-5.5,10.6-12.3,19.6-18.8,26.6c-6.5,7.2-13,12.1-17.3,15.9c-4.6,3.5-7.1,5.9-6.6,6.8
						c0.5,0.9,3.8,0.1,9.4-2.2c5.4-2.7,13.1-6.8,20.9-13.8c7.9-6.9,16-16.3,22.5-27.7c6.6-11.4,11.4-24.8,14-38.5
						c2.6-13.7,3-27.6,2.3-40.5c-0.6-6.4-1-12.6-2.1-18.4c-0.5-2.9-1-5.7-1.4-8.4c-0.5-2.8-1.3-5.5-2-8c-3-10-6.7-17.8-9.8-22.9
						c-3.1-5.2-5.6-7.7-6.5-7.2c-1.9,1,3.6,13.2,7.3,32.3c0.4,2.4,0.9,4.8,1.1,7.4c0.2,2.6,0.5,5.4,0.8,8.2
						c0.7,5.6,0.7,11.5,1.1,17.6c0.1,12.2-0.5,25.1-2.9,37.7C459.7,388.2,455.6,400.4,450,411z"/>
				</g>
			</g>
			<g>
				<g>
					<g>
						<path class="st4" d="M302.3,320.5c-4.1,0.2-4.6,27.1-1.6,53.7c1.5,13.3,3.9,26.6,6.7,36.3c2.8,9.8,5.8,16,7.8,15.5
							c2-0.5,2-7.2,1.3-17.1c-0.7-9.9-2.1-23-3.5-36.1C309.9,346.6,306.4,320.3,302.3,320.5z"/>
					</g>
				</g>
				<g>
					<g>
						<path class="st4" d="M352.2,426.1c8.2-0.2,5.8-105.8-2.4-105.6C341.6,320.7,344,426.3,352.2,426.1z"/>
					</g>
				</g>
				<g>
					<g>
						<path class="st4" d="M389.8,373c-1.2,13.1-2.5,26.1-3.2,36c-0.7,9.9-0.8,16.5,1.2,17.1c2,0.5,5.1-5.7,7.9-15.5
							c2.7-9.8,5.1-23.1,6.4-36.4c2.7-26.8,0.8-53.7-3.2-53.7C394.6,320.5,392.4,346.9,389.8,373z"/>
					</g>
				</g>
			</g>
		</g>
		<g>
			<g>
				<path class="st2" d="M331.5,104.5c-29.7-1.8-29.8,45-31.8,87.1c-2.8,61-2.9,88.9-2.9,88.9l61.2-4.1c0,0-0.1-35.4-2-86.9
					C354.9,154.5,353.8,105.9,331.5,104.5z"/>
			</g>
			<g>
				<g>
					<path class="st4" d="M356.8,126.1c-1.4-5.6-3.2-11.4-6.5-17c-1.6-2.8-3.7-5.6-6.5-8.1c-2.8-2.4-6.6-4.3-10.6-4.9
						c-1-0.1-2-0.2-2.9-0.2l-2.7,0.1c-1.8,0.2-3.6,0.5-5.4,1.1c-3.6,1.1-6.8,3.2-9.4,5.6c-2.6,2.4-4.5,5.2-6.2,8
						c-1.6,2.8-2.8,5.6-3.9,8.4c-2,5.7-3.4,11.3-4.3,16.8c-1,5.5-1.6,10.9-2.1,16.3c-1,10.6-1.3,20.8-1.6,30.4
						c-0.2,9.6-0.4,18.7-0.6,27c-0.6,33.5-0.1,55.8,2,55.9c2,0.1,4.6-22.1,7.2-55.5c0.7-8.3,1.3-17.4,1.9-27
						c0.6-9.5,1.3-19.5,2.5-29.7c1.2-10.1,2.8-20.7,6.3-30c0.9-2.3,1.9-4.6,3.1-6.5c1.2-2,2.5-3.8,4-5.1c1.5-1.4,3.1-2.3,4.8-2.9
						c0.9-0.3,1.8-0.4,2.8-0.6l1.5-0.1c0.4,0,0.8,0.1,1.3,0.1c1.6,0.2,3,0.9,4.4,2.1c1.4,1.2,2.7,2.9,3.9,4.9c2.3,4,4,8.9,5.3,13.8
						c2.6,10,3.9,20.6,4.8,30.8c0.9,10.3,1.5,20.3,2,29.8c0.5,9.6,1,18.6,1.4,26.9c1.8,33.4,2.9,55.6,4.9,55.7
						c2.1,0,4-22.3,4.3-55.9c0.1-8.4,0.1-17.5-0.1-27.1c-0.1-9.6-0.4-19.8-1.1-30.4C360.7,148.4,359.6,137.4,356.8,126.1z"/>
				</g>
			</g>
		</g>
		<g>
			<g>
				<path class="st2" d="M357.2,287.7l58.5-6.5c0,0-1.6-34-5.6-83.3c-2.7-33.4-5.9-80-27.3-80.4c-28.5-0.5-26.7,44.5-26.7,84.8
					C356.1,260.9,357.2,287.7,357.2,287.7z"/>
			</g>
			<g>
				<g>
					<path class="st4" d="M414.6,172.2c-1-9.9-2.4-20.3-5-30.8c-1.4-5.3-3-10.6-5.6-15.9c-1.3-2.6-2.8-5.3-4.9-7.8
						c-2-2.5-4.7-4.9-8-6.6c-3.3-1.7-7.4-2.3-10.8-2c-3.4,0.3-6.9,1.2-10,3c-3.1,1.8-5.6,4.2-7.6,6.8c-2,2.6-3.4,5.3-4.6,8
						c-2.3,5.5-3.5,10.9-4.5,16.1c-0.9,5.3-1.4,10.5-1.7,15.5c-0.6,10.1-0.6,19.7-0.4,28.8c0.2,9.1,0.4,17.6,0.7,25.5
						c1,31.5,3,52.7,5.3,52.6c1.7-0.1,2.8-21,3.9-52.6c0.3-7.9,0.5-16.5,0.7-25.5c0.2-9,0.5-18.4,1.3-28c0.4-4.8,1-9.6,1.9-14.3
						c0.9-4.7,2.1-9.4,3.9-13.4c1.7-4.1,4.3-7.4,7.1-9c1.4-0.9,3.1-1.3,5-1.4c1.8-0.1,3.1,0.1,4.5,0.8c2.7,1.3,5.4,4.7,7.4,8.9
						c2.1,4.1,3.6,8.8,4.9,13.5c2.5,9.5,4,19.4,5.3,29.1c1.2,9.6,2.1,19.1,3,28.1c0.9,9,1.7,17.5,2.5,25.3c3,31.3,5,52.3,7.1,52.2
						c2,0,3.1-21.2,2.1-52.8c-0.2-7.9-0.6-16.5-1.1-25.5C416.2,191.7,415.6,182.2,414.6,172.2z"/>
				</g>
			</g>
		</g>
		<g>
			<g>
				<path class="st2" d="M421.3,230.9c-8.4,51.4-11.2,75.1-11.2,75.1l52.3,2.6c0,0,0.6-29.3,4.2-73.2c2.4-29.8,9-71.8-9.7-75.2
					C431.9,155.7,427.1,195.4,421.3,230.9z"/>
			</g>
			<g>
				<g>
					<path class="st4" d="M469.4,294.1c0.1-0.9,0.1-1.9,0.2-2.8c1-15,1.9-32.4,3.5-51c0.8-9.3,1.8-18.9,2.6-28.9
						c0.7-10,1.2-20.2,0.3-30.9c-0.3-2.7-0.6-5.4-1.2-8.1c-0.6-2.7-1.4-5.5-2.6-8.3c-1.3-2.8-3-5.7-5.8-8.2c-2.7-2.5-6.6-4-10.1-4.3
						c-3.2-0.4-6.8,0-9.9,1.2c-3.2,1.2-5.9,3.1-8.1,5.2c-2.2,2.1-3.9,4.4-5.4,6.7c-1.5,2.3-2.6,4.7-3.7,7
						c-4.1,9.4-6.1,18.5-7.8,27.1c-1.7,8.6-2.8,16.7-3.7,24.2c-3.7,29.9-5.2,49.9-3.2,50.2c2.1,0.3,6.5-19.3,12.3-48.7
						c1.5-7.3,3-15.3,5-23.5c2-8.2,4.3-16.8,7.9-24.6c0.9-1.9,1.9-3.8,3-5.5c1.1-1.7,2.3-3.2,3.7-4.4c2.7-2.4,5.3-3.4,8.7-3
						c1.5,0.2,2.4,0.6,3.4,1.4c1,0.9,1.9,2.3,2.7,4c1.5,3.5,2.4,8.1,2.8,12.7c0.9,9.3,0.5,19.2-0.1,28.9c-0.6,9.7-1.5,19.4-2,28.9
						c-1.1,18.9-1.2,36.5-1.2,51.5c0,0.9,0,1.9,0,2.8l0,1.4l0.1,1.7c0.1,2.1,0.5,4,0.8,5.8c0.7,3.5,1.6,6.7,2.3,9.7
						c1.6,5.9,2.9,10.9,3.9,15.1c2,8.4,2.3,13.3,3.4,13.4c1,0.1,2.4-5.1,1.9-14.1c-0.2-4.5-0.9-9.9-1.9-15.9c-0.5-3-1-6.2-1.4-9.4
						c-0.2-1.6-0.3-3.2-0.3-4.7l0-1.1L469.4,294.1z"/>
				</g>
			</g>
		</g>
		<g>
			<g>
				<path class="st2" d="M239,132.2c-29.4,4.3-19.8,50.2-13,91.8c9.9,60.2,18.1,106.6,18.1,106.6l56.6-35.7c0,0-7.5-34.6-20-84.6
					C272.2,176.2,261,128.9,239,132.2z"/>
			</g>
			<g>
				<g>
					<path class="st4" d="M227,150.8c0.5-2.3,1.2-4.5,2.1-6.5c1.9-3.9,4.4-6.5,7.9-7.7c1.9-0.6,3.5-0.9,5-0.6
						c1.5,0.2,3.1,0.9,4.7,2.1c3.2,2.3,6.1,6.2,8.6,10.3c2.5,4.1,4.6,8.7,6.5,13.2c3.8,9.1,6.8,18.4,9.5,27.2
						c2.7,8.9,5,17.4,7.2,25.3c8.9,31.5,15.2,52.3,17.1,51.9c2.2-0.4-1.2-22.2-8.1-54.1c-1.7-8-3.6-16.7-6-25.9
						c-2.4-9.2-5.1-18.8-9-28.7c-1.9-4.9-4.1-9.9-6.9-14.9c-2.9-4.9-6.2-9.9-11.6-14.1c-2.7-2-6.1-3.8-9.9-4.4
						c-1-0.2-1.9-0.3-2.9-0.3c-1,0-1.9,0-2.9,0.1c-1,0.1-1.9,0.2-2.7,0.5c-0.8,0.2-1.7,0.4-2.5,0.7c-3.4,1.1-6.6,3.1-9.2,5.7
						c-2.6,2.5-4.5,5.5-5.9,8.5c-2.7,6-3.7,12.1-4.2,17.9c-0.5,5.8-0.4,11.5-0.1,17c0.6,11.1,2.2,21.7,3.9,31.9
						c3.4,20.3,7.2,38.9,10.5,55c6.6,32.1,11.8,53.3,13.8,52.9c2-0.4-0.2-22.1-4.8-54.5c-2.4-16.1-5.2-35-8.2-55.2
						c-1.4-10-2.7-20.4-3.2-30.7c-0.2-5.2-0.3-10.4,0.2-15.3C226.1,155.6,226.5,153.1,227,150.8z"/>
				</g>
			</g>
		</g>
		<g>
			<g>
				<path class="st4" d="M233.9,319.6c-0.3,0-0.6-0.1-1-0.3c-0.7-0.2-1.8-0.9-2.8-1.4c-2-1.3-4.1-2.7-6.2-4.4c-4.2-3.3-8.5-7-13-11
					c-4.4-4-9-8-13.6-12.2c-2.4-2.1-4.7-4.2-7.1-6.3c-1.2-1.1-2.4-2.1-3.7-3.2c-1.4-1.1-2.7-2.2-4.2-3.2c-5.7-4.2-12.6-7.6-20.2-9
					c-7.6-1.5-16-0.6-23.4,2.9c-3.7,1.7-7.1,4-10,6.9c-3,2.8-5.6,6.2-7.3,10.2c-1.8,3.9-3,8.7-1.8,14c0.3,1.3,0.8,2.6,1.4,3.8
					l1.6,2.7c0.5,0.9,1.1,1.7,1.7,2.5c0.6,0.8,1.1,1.6,1.7,2.4c4.8,5.9,10,10.7,15,15.5c5,4.8,10,9.4,14.8,14.1
					c9.5,9.4,18.2,19.2,25.3,29.5c0.9,1.3,1.8,2.6,2.7,3.9c0.9,1.3,1.8,2.7,2.7,4c1.8,2.7,3.7,5.3,5.5,7.9
					c3.7,5.1,7.5,10.1,11.4,14.7c7.7,9.4,15.7,17.7,23.6,24.8c7.9,7.1,16,12.8,23.6,17.1c7.6,4.3,14.7,7.2,20.6,8.9
					c5.9,1.8,10.7,2.6,13.6,3.4c1.5,0.4,2.5,0.8,3.2,1.1c0.7,0.4,1,0.7,1.3,0.5c0.2-0.1,0.3-0.7-0.2-1.5c-0.5-0.9-1.6-1.9-3.1-2.8
					c-3-1.8-7.5-3.4-12.9-5.8c-5.4-2.4-11.8-5.7-18.6-10.3c-6.8-4.6-14-10.4-21.2-17.5c-7.2-7.1-14.6-15.3-21.7-24.6
					c-3.6-4.6-7.1-9.5-10.6-14.6c-1.7-2.5-3.5-5.1-5.2-7.8c-0.9-1.3-1.7-2.6-2.6-4c-0.9-1.4-1.8-2.8-2.8-4.1
					c-7.4-11.2-16.5-21.7-26.3-31.5c-4.9-4.9-10-9.7-14.9-14.4c-4.9-4.7-9.9-9.4-13.8-14.3c-0.5-0.6-0.9-1.2-1.3-1.8
					c-0.4-0.6-0.9-1.2-1.2-1.8l-1.1-1.8c-0.1-0.4-0.3-0.7-0.4-1.1c-0.4-1.5-0.1-3.9,1-6.2c2.1-4.7,6.5-8.8,11.4-11.2
					c5-2.4,10.7-3.1,16.2-2.1c5.5,0.9,10.9,3.4,15.7,6.8c1.2,0.8,2.4,1.7,3.5,2.6c1.2,0.9,2.4,2,3.6,3c2.4,2,4.8,4.1,7.2,6.1
					c4.8,4,9.5,8,14,11.8c4.6,3.8,9.2,7.5,13.9,10.9c2.4,1.7,4.9,3.3,7.5,4.8c1.5,0.7,2.6,1.3,4.5,2c1,0.5,2.2,0.5,3.3,0.7
					c0.6,0,1.1,0.2,1.6,0.2l1.6-0.1c2.2,0,4-1.5,5.1-3.2c1.2-1.7,1.8-3.9,2.1-6c0.4-3,0.4-5.5,0.3-8.1c-0.2-5-0.8-9.5-1.5-13.8
					c-1.4-8.5-3-15.7-4.5-21.6c-3-11.8-5.5-18.4-6.5-18.1c-1,0.2-0.2,7.2,1.2,19.1c0.7,6,1.7,13.3,2.3,21.5c0.3,4.1,0.6,8.5,0.5,13
					c0,2.2-0.2,4.5-0.6,6.4C235,318.9,234.7,319.7,233.9,319.6z"/>
			</g>
		</g>
	</g>
</g>
</svg>
