<?xml version="1.0" encoding="utf-8"?>
<!-- Generator: Adobe Illustrator 24.0.1, SVG Export Plug-In . SVG Version: 6.00 Build 0)  -->
<svg version="1.1" id="Layer_1" xmlns="http://www.w3.org/2000/svg" xmlns:xlink="http://www.w3.org/1999/xlink" x="0px" y="0px"
	 viewBox="0 0 600 600" style="enable-background:new 0 0 600 600;" xml:space="preserve">
<style type="text/css">
	.st0{fill:#A9BECE;}
	.st1{fill:#FFFFFF;}
	.st2{fill:#B8C7E6;}
	.st3{fill:#303030;}
</style>
<g>
	<g>
		<path class="st0" d="M429,367.7c6.6-11.4,11.4-24.8,14-38.5c2.6-13.7,3-27.6,2.3-40.5c-0.6-6.4-1-12.6-2.1-18.4
			c-0.5-2.9-1-5.7-1.4-8.4c-0.5-2.8-1.3-5.5-2-8c-0.7-2.2-1.4-4.3-2.1-6.3c-0.2-0.8-0.4-1.7-0.6-2.6c-0.4-1.8-0.8-3.7-1.5-5.6
			c-2.3-7.8-6.1-16.8-13.1-25.2c-3.6-4.1-8.2-7.9-13.7-10.5c-5.5-2.6-12-3.7-18.2-3c-1.1,0.1-2.2,0.3-3.3,0.5c0-0.1,0-0.2-0.1-0.3
			c-0.4-1.3-0.9-2.7-1.4-4.1c-0.7-1.4-1.3-2.9-2.1-4.4c-1.6-3.1-4-6.2-7.1-9.1c-3.1-2.8-7-5.3-11.4-6.8c-4.4-1.5-9.2-2.1-14-1.8
			c-4.8,0.3-9.8,1.5-14.3,3.8c-1.4,0.7-2.7,1.6-3.9,2.5c-1.2-2.9-2.8-5.8-4.9-8.8c-2.5-3.5-6-7-10.3-9.5c-4.3-2.6-9.4-4.1-14.5-4.5
			c-5.1-0.4-10.4,0-15.5,1.8c-5.1,1.8-9.7,4.9-13.3,8.6c-0.9,1-1.8,1.8-2.5,2.9c-0.7,1-1.5,2-2.2,3c-0.7,1-1.2,2.1-1.8,3.1
			c-0.6,1-1.2,2.1-1.6,3.1c-0.1,0.2-0.1,0.3-0.2,0.5c-2.7-2.8-6-5.3-10-7.1c-5-2.3-10.7-3.3-16.5-3c-5.8,0.2-12.2,2-17.5,5.7
			c-5.3,3.6-9.3,8.7-12.2,14c-3,5.3-4.7,10.8-6.1,16.3c-0.3,1.4-0.6,2.7-1,4.1c-0.2,1.4-0.5,2.7-0.7,4c-0.5,2.7-0.7,5.3-1,7.9
			c-0.3,3.9-0.5,7.7-0.6,11.3c-6.3,2.7-13.7,6.4-21.9,12.7c-4.9,3.8-10.1,8.7-14.5,15.6c-2.2,3.4-4.1,7.5-5.2,12
			c-0.5,2.3-0.9,4.7-1,7.1c0,0.6-0.1,1.3-0.1,1.8l0,1.6c0,1.1,0.1,2.1,0.1,3.2c0.3,8.6,1.6,17.5,3.6,26.1c2.1,8.7,5.3,17.1,9,25.1
			c7.7,15.9,18.2,29.5,28.8,39.6c10.6,10.2,21.2,16.9,28.7,21.4c2.7,1.4,5.1,2.6,7,3.4c-0.5,0.7-1.1,1.4-1.6,2.2
			c-0.9,1.5-1.6,3.4-2,5.3c-0.3,2.2-0.3,3.9,0,5.8c0.2,1.9,0.8,3.8,1.5,5.7c0.8,1.8,1.9,3.6,3.1,5.2c2.5,3.2,5.7,5.7,9,7.7
			c6.7,4,14.2,6.3,21.9,8.1c15.4,3.4,31.9,4.4,48.2,4.4c16.3,0,32.8-1,48.2-4.4c7.7-1.8,15.2-4.1,21.9-8.1c3.4-2,6.5-4.4,9.1-7.6
			c1.3-1.5,2.3-3.3,3.2-5.1c0.8-1.9,1.4-3.8,1.6-5.7c0.2-1,0.2-1.9,0.2-2.8c0.1-0.9-0.1-1.9-0.2-3c-0.4-2-1.1-3.9-2-5.4
			c-0.6-1.1-1.4-2-2.1-2.9c3.5-2.2,7.2-4.9,11-8.3C414.3,388.5,422.5,379.1,429,367.7z"/>
	</g>
	<g>
		<path class="st1" d="M231.9,409.8c0,21.4,35.7,28.6,79.7,28.6c44,0,79.7-7.1,79.7-28.6c0-15.8-35.7-28.6-79.7-28.6
			C267.6,381.2,231.9,394,231.9,409.8z"/>
	</g>
	<g>
		<path class="st2" d="M239.4,401.7c0,13.9,32.5,18.5,72.6,18.5c40.1,0,72.6-4.6,72.6-18.5c0-10.2-32.5-18.5-72.6-18.5
			C271.9,383.2,239.4,391.5,239.4,401.7z"/>
	</g>
	<g>
		<g>
			<path class="st3" d="M240.9,399.3c3.1-3,6.7-5.2,9.6-6.9c5.9-3.5,9.6-5.3,9.3-6.3c-0.3-0.9-4.5-0.8-11.5,1.4
				c-3.5,1.2-7.7,2.8-12.2,6.1c-2.2,1.6-4.5,3.7-6.4,6.8c-0.9,1.5-1.6,3.4-2,5.3c-0.3,2.2-0.3,3.9,0,5.8c0.2,1.9,0.8,3.8,1.5,5.7
				c0.8,1.8,1.9,3.6,3.1,5.2c2.5,3.2,5.7,5.7,9,7.7c6.7,4,14.2,6.3,21.9,8.1c15.4,3.4,31.9,4.4,48.2,4.4c16.3,0,32.8-1,48.2-4.4
				c7.7-1.8,15.2-4.1,21.9-8.1c3.4-2,6.5-4.4,9.1-7.6c1.3-1.5,2.3-3.3,3.2-5.1c0.8-1.9,1.4-3.8,1.6-5.7c0.2-1,0.2-1.9,0.2-2.8
				c0.1-0.9-0.1-1.9-0.2-3c-0.4-2-1.1-3.9-2-5.4c-1.8-3.1-4.1-5.2-6.3-6.8c-4.5-3.3-8.7-4.9-12.2-6.1c-7-2.3-11.2-2.3-11.5-1.4
				c-0.3,1,3.4,2.9,9.3,6.3c2.9,1.8,6.5,3.9,9.6,6.9c1.5,1.5,2.9,3.2,3.7,5c0.8,1.8,0.8,3.3,0.3,5.7c-0.9,4.3-4.5,8-9.9,10.8
				c-5.4,2.8-12,4.7-19.1,6c-14.2,2.6-30.1,3.4-45.9,3.4c-15.8,0-31.7-0.8-45.9-3.4c-7-1.4-13.7-3.2-19.1-6c-5.4-2.8-9-6.5-9.8-10.8
				c-0.3-1-0.3-2.3-0.3-3c0.1-0.8,0.3-1.7,0.7-2.6C237.9,402.5,239.3,400.8,240.9,399.3z"/>
		</g>
	</g>
	<g>
		<path class="st1" d="M161.6,279.4c0,34.4,13.1,79.4,75,117.1l-14.8-170.9C221.8,225.7,161.6,245,161.6,279.4z"/>
	</g>
	<g>
		<g>
			<path class="st3" d="M169.8,272.2c0.6-2.8,1.7-5.4,3.2-7.8c2.9-4.9,6.8-9.1,10.7-12.6c7.9-7,15.6-11.7,21.5-15.4
				c12-7.3,17.4-10.7,16.7-12.7c-0.3-1-2.2-1.5-5.7-1.1c-3.5,0.4-8.7,1.6-15.7,4.2c-6.9,2.7-15.8,6.7-25.7,14.3
				c-4.9,3.8-10.1,8.7-14.5,15.6c-2.2,3.4-4.1,7.5-5.2,12c-0.5,2.3-0.9,4.7-1,7.1c0,0.6-0.1,1.3-0.1,1.8l0,1.6
				c0,1.1,0.1,2.1,0.1,3.2c0.3,8.6,1.6,17.5,3.6,26.1c2.1,8.7,5.3,17.1,9,25.1c7.7,15.9,18.2,29.5,28.8,39.6
				c10.6,10.2,21.2,16.9,28.7,21.4c7.8,4.1,12.6,5.9,13.1,5.1c0.6-0.9-3.2-4.5-9.7-9.9c-6.3-5.8-15.4-13.5-24.3-23.9
				c-9-10.3-17.6-23.4-23.8-38c-3-7.3-5.6-14.9-7.3-22.7c-1.7-7.8-2.7-15.7-3-23.3c0-1-0.1-1.9-0.1-2.8l0-1.4c0-0.5,0-0.8,0-1.1
				C169.2,275,169.5,273.6,169.8,272.2z"/>
		</g>
	</g>
	<g>
		<path class="st1" d="M385.7,202.9c-19.9,3.2-33.3,22.2-25.9,67.9l71.9-11.7C424.3,213.4,405.5,199.6,385.7,202.9z"/>
	</g>
	<g>
		<g>
			<path class="st3" d="M433.1,238.8c-0.4-1.8-0.8-3.7-1.5-5.6c-2.3-7.8-6.1-16.8-13.1-25.2c-3.6-4.1-8.2-7.9-13.7-10.5
				c-5.5-2.6-12-3.7-18.2-3c-6.1,0.7-12.1,2.8-17.2,6.4c-5.1,3.6-8.8,8.6-11.2,13.6c-2.4,5-3.8,10.1-4.4,14.9
				c-0.2,1.2-0.4,2.4-0.5,3.5c-0.1,1.1-0.1,2.3-0.2,3.4c-0.2,2.2-0.1,4.4,0,6.4c0,1,0.1,2,0.1,3c0.1,1,0.2,1.9,0.3,2.8
				c0.2,1.8,0.4,3.6,0.7,5.2c0.6,3.2,1.1,6,1.9,8.2c1.4,4.5,2.6,6.9,3.6,6.7c1-0.2,1.5-2.9,1.7-7.4c0.1-2.3,0.3-5,0.3-8.1
				c0-1.5,0.2-3.2,0.3-4.9c0-0.9,0.1-1.7,0.1-2.6c0.1-0.9,0.2-1.8,0.3-2.7c0.2-1.8,0.3-3.8,0.7-5.7c0.1-1,0.3-2,0.5-3
				c0.2-1,0.5-2,0.7-3c0.9-4,2.3-8,4.2-11.6c2-3.6,4.6-6.8,7.9-9c3.3-2.2,7.4-3.6,11.5-4.1c4.1-0.5,8.2,0.2,11.9,1.8
				c3.8,1.6,7.2,4.2,10.2,7.2c5.9,6.2,10,13.8,13,20.6c0.8,1.7,1.5,3.3,2.1,4.9c0.6,1.6,1.3,3.1,1.8,4.5c1,2.9,2.1,5.4,2.8,7.5
				c1.6,4.2,2.9,6.6,3.9,6.5c1-0.2,1.4-2.9,1.3-7.5c0-2.3-0.5-5.1-0.9-8.4C433.9,242.3,433.5,240.6,433.1,238.8z"/>
		</g>
	</g>
	<g>
		<ellipse class="st1" cx="349.9" cy="239.3" rx="36.4" ry="62.8"/>
	</g>
	<g>
		<g>
			<path class="st3" d="M383.2,194.8c-0.4-1.3-0.9-2.7-1.4-4.1c-0.7-1.4-1.3-2.9-2.1-4.4c-1.6-3.1-4-6.2-7.1-9.1
				c-3.1-2.8-7-5.3-11.4-6.8c-4.4-1.5-9.2-2.1-14-1.8c-4.8,0.3-9.8,1.5-14.3,3.8c-4.5,2.4-8.3,5.8-11.3,9.5c-0.7,1-1.4,1.9-2.1,2.9
				c-0.7,1-1.2,2-1.7,3c-1.2,2-2,4-2.8,6c-3.2,8-4.2,15.7-4.6,22.2c-0.7,13,1.3,21.4,3.2,21.3c2.2,0,3.3-8.3,5.9-20.1
				c1.4-5.8,3.1-12.6,6.1-18.9c0.8-1.5,1.5-3.2,2.5-4.6c0.5-0.7,0.9-1.5,1.4-2.2l1.6-2c2.2-2.6,4.7-4.8,7.6-6.3
				c2.9-1.5,6.1-2.3,9.4-2.6c3.4-0.3,6.7,0,9.7,0.8c6,1.6,10.8,5.6,14.2,9.9c0.9,1.1,1.6,2.2,2.4,3.3c0.7,1.1,1.4,2.2,2,3.2
				c0.6,1,1.1,2,1.7,2.9c0.5,0.9,1,1.8,1.4,2.6c1.7,3.1,3,5,4.1,4.7c1-0.2,1.4-2.5,1.1-6.3c-0.1-1-0.3-2-0.4-3.2
				C383.9,197.4,383.6,196.2,383.2,194.8z"/>
		</g>
	</g>
	<g>
		<ellipse class="st1" cx="296.2" cy="222.8" rx="36.4" ry="62.8"/>
	</g>
	<g>
		<g>
			<path class="st3" d="M313.8,156.6c-4.3-2.6-9.4-4.1-14.5-4.5c-5.1-0.4-10.4,0-15.5,1.8c-5.1,1.8-9.7,4.9-13.3,8.6
				c-0.9,1-1.8,1.8-2.5,2.9c-0.7,1-1.5,2-2.2,3c-0.7,1-1.2,2.1-1.8,3.1c-0.6,1-1.2,2.1-1.6,3.1c-3.8,8.4-5.1,16.6-5.7,23.5
				c-0.9,13.8,1.1,22.7,3,22.7c2.2,0,3.3-8.9,6.1-21.3c1.5-6.2,3.5-13.3,6.9-19.8c3.4-6.6,8.6-11.9,15.1-14.2
				c3.2-1.2,6.9-1.5,10.5-1.4c3.6,0.2,6.9,1.1,9.8,2.6c5.9,2.9,10.1,8.5,13.1,13.8c3,5.3,4.8,10.4,6.3,13.9c1.4,3.5,2.6,5.6,3.7,5.5
				c1-0.1,1.6-2.5,1.6-6.5c-0.1-4-0.7-9.8-3.2-16.6c-1.2-3.4-3-7-5.6-10.5C321.6,162.6,318.1,159.2,313.8,156.6z"/>
		</g>
	</g>
	<g>
		<g>
			<ellipse class="st1" cx="238.4" cy="235.5" rx="36.4" ry="62.8"/>
		</g>
	</g>
	<g>
		<path class="st1" d="M311.6,203.1c-67.1,0-121.5,27.2-121.5,109.2c0,60.3,54.4,109.2,121.5,109.2c75,0,138.1-56.2,120.2-162.4
			C425.9,224.6,371.7,203.1,311.6,203.1z"/>
	</g>
	<g>
		<path class="st2" d="M201.4,271.3v-32.5C192.3,245.4,175,267,201.4,271.3z"/>
	</g>
	<g>
		<g>
			<path class="st3" d="M252.2,168c-5-2.3-10.7-3.3-16.5-3c-5.8,0.2-12.2,2-17.5,5.7c-5.3,3.6-9.3,8.7-12.2,14
				c-3,5.3-4.7,10.8-6.1,16.3c-0.3,1.4-0.6,2.7-1,4.1c-0.2,1.4-0.5,2.7-0.7,4c-0.5,2.7-0.7,5.3-1,7.9c-0.9,10.4-0.8,19.8-0.5,27.9
				c0.7,16.2,2.6,26.8,4.6,26.8c2.1,0,3.2-10.7,4.6-26.6c0.7-7.9,1.4-17.2,2.7-26.7c0.4-2.4,0.7-4.8,1.2-7.2
				c0.2-1.2,0.5-2.4,0.7-3.6c0.3-1.2,0.6-2.4,0.9-3.5c1.3-4.7,2.9-9.4,5.2-13.4c2.2-4.1,5-7.5,8.4-10c3.3-2.5,7.2-3.7,11.4-4.1
				c4.2-0.4,8.3,0,11.7,1.3c3.5,1.2,6.6,3.2,9.1,5.6c5,4.8,8,10.6,10.1,14.5c1.1,2,1.9,3.6,2.7,4.7c0.7,1.1,1.4,1.6,1.9,1.5
				c0.5-0.1,0.8-0.9,0.9-2.2c0.1-1.3,0.1-3.3-0.4-5.7c-0.9-4.8-2.7-11.9-8.4-19.1C261.2,173.6,257.2,170.3,252.2,168z"/>
		</g>
	</g>
	<g>
		<g>
			<path class="st3" d="M414.9,356.1c-5.5,10.6-12.3,19.6-18.8,26.6c-6.5,7.2-13,12.1-17.3,15.9c-4.6,3.5-7.1,5.9-6.6,6.8
				c0.5,0.9,3.8,0.1,9.4-2.2c5.4-2.7,13.1-6.8,20.9-13.8c7.9-6.9,16-16.3,22.5-27.7c6.6-11.4,11.4-24.8,14-38.5
				c2.6-13.7,3-27.6,2.3-40.5c-0.6-6.4-1-12.6-2.1-18.4c-0.5-2.9-1-5.7-1.4-8.4c-0.5-2.8-1.3-5.5-2-8c-3-10-6.7-17.8-9.8-22.9
				c-3.1-5.2-5.6-7.7-6.5-7.2c-1.9,1,3.6,13.2,7.3,32.3c0.4,2.4,0.9,4.8,1.1,7.4c0.2,2.6,0.5,5.4,0.8,8.2c0.7,5.6,0.7,11.5,1.1,17.6
				c0.1,12.2-0.5,25.1-2.9,37.7C424.5,333.4,420.4,345.5,414.9,356.1z"/>
		</g>
	</g>
	<g>
		<g>
			<g>
				<path class="st3" d="M267.1,265.7c-4.1,0.2-4.6,27.1-1.6,53.7c1.5,13.3,3.9,26.6,6.7,36.3c2.8,9.8,5.8,16,7.8,15.5
					c2-0.5,2-7.2,1.3-17.1c-0.7-9.9-2.1-23-3.5-36.1C274.7,291.7,271.2,265.4,267.1,265.7z"/>
			</g>
		</g>
		<g>
			<g>
				<path class="st3" d="M317,371.2c8.2-0.2,5.8-105.8-2.4-105.6C306.5,265.8,308.8,371.4,317,371.2z"/>
			</g>
		</g>
		<g>
			<g>
				<path class="st3" d="M354.6,318.1c-1.2,13.1-2.5,26.1-3.2,36c-0.7,9.9-0.8,16.5,1.2,17.1c2,0.5,5.1-5.7,7.9-15.5
					c2.7-9.8,5.1-23.1,6.4-36.4c2.7-26.8,0.8-53.7-3.2-53.7C359.4,265.6,357.2,292,354.6,318.1z"/>
			</g>
		</g>
	</g>
</g>
</svg>
