<?xml version="1.0" encoding="utf-8"?>
<!-- Generator: Adobe Illustrator 24.0.1, SVG Export Plug-In . SVG Version: 6.00 Build 0)  -->
<svg version="1.1" id="Layer_1" xmlns="http://www.w3.org/2000/svg" xmlns:xlink="http://www.w3.org/1999/xlink" x="0px" y="0px"
	 viewBox="0 0 600 600" style="enable-background:new 0 0 600 600;" xml:space="preserve">
<style type="text/css">
	.st0{display:none;fill:#FFFFFF;}
	.st1{fill:#A9BECE;}
	.st2{fill:#FFFFFF;}
	.st3{fill:#B8C7E6;}
	.st4{fill:#303030;}
</style>
<rect y="1" class="st0" width="600" height="600"/>
<g>
	<g>
		<path class="st1" d="M429.2,426.6c6.6-11.4,11.4-24.8,14-38.5c2.6-13.7,3-27.6,2.3-40.5c-0.6-6.4-1-12.6-2.1-18.4
			c-0.5-2.9-1-5.7-1.4-8.4c-0.5-2.8-1.3-5.5-2-8c-0.7-2.2-1.4-4.3-2.1-6.3c-0.2-0.8-0.4-1.7-0.6-2.6c-0.4-1.8-0.8-3.7-1.5-5.6
			c-2.3-7.8-6.1-16.8-13.1-25.2c-3.6-4.1-8.2-7.9-13.7-10.5c-5.5-2.6-12-3.7-18.2-3c-1.1,0.1-2.3,0.3-3.4,0.5
			c-0.7-1.9-1.5-3.9-2.5-5.9c-1.6-3.1-3.7-6.3-6.5-9.4c-2.8-3.1-6.4-6-10.7-8.1c-4.3-2.1-9.4-3.3-14.4-3.2c-4.9,0-10,1-14.7,3.2
			c-2.6,1.2-5,2.8-7.1,4.5c0.1-5.8,0.2-12.1,0.2-18.9c0-8.4-0.1-17.6-0.4-27.2c-0.2-9.6-0.6-19.9-1.4-30.5c-0.8-10.6-2-21.7-4.8-33
			c-1.5-5.6-3.2-11.4-6.4-17.1c-1.6-2.8-3.5-5.6-6.2-8.2c-2.7-2.5-6.3-4.6-10.2-5.4c-1-0.2-2-0.3-2.9-0.4c-1-0.1-1.9-0.1-2.8,0
			c-1.8,0-3.6,0.4-5.4,0.9c-3.6,1-7,2.9-9.7,5.3c-5.4,4.9-8.3,10.8-10.4,16.5c-4,11.4-5.3,22.6-6.3,33.3c-0.9,10.7-1.1,21-1.3,30.6
			c-0.1,9.7-0.2,18.8-0.2,27.2c0,6.1,0.1,11.8,0.3,17.1c-1.2-5.7-2.5-11.9-4-18.5c-1.9-8.6-4-17.8-6.4-27.7
			c-2.5-9.9-5.3-20.3-9.5-30.9c-2.2-5.3-4.6-10.7-8.3-16c-1.9-2.6-4.1-5.2-7.1-7.5c-3-2.2-7-4-11.4-4.1c-1.1-0.1-2.1,0.1-3.2,0.2
			c-1,0.2-2,0.4-3,0.7c-1.7,0.6-3.4,1.2-5,2.1c-3.3,1.7-6.3,4.2-8.6,7c-4.7,5.8-6.6,12.7-7.7,19c-1,6.4-1.1,12.6-0.8,18.7
			c0.3,6.1,0.9,12,1.7,17.8c1.6,11.7,3.8,22.8,5.8,33.6c0.3,1.4,0.4,2.7,0.9,4.3c0.3,1.3,0.6,2.6,0.9,3.9c0.6,2.6,1.2,5.2,1.8,7.8
			c1.2,5.1,2.3,10.2,3.4,15c2.2,9.8,4.2,19.1,5.9,27.6c0.4,1.8,0.7,3.6,1.1,5.3c-1.7,0.5-3.5,1.2-5.5,1.9c-7,2.7-15.9,6.7-25.8,14.4
			c-2.5,1.9-5,4.1-7.4,6.7c-2.5,2.5-4.9,5.6-7,9c-2.1,3.5-4.1,7.5-5.1,12.2c-0.5,2.3-0.9,4.7-0.9,7.2c-0.1,1.3,0,2.2,0,3.3
			c0,1.1,0.1,2.1,0.1,3.2c0.4,8.7,1.6,17.5,3.8,26.2c2.1,8.7,5.4,17.2,9.1,25.2c7.7,16,18.2,29.7,28.9,39.8
			c10.6,10.2,21.2,17,28.7,21.5c2.4,1.3,4.5,2.3,6.3,3.1c-0.4,0.5-0.8,1.1-1.1,1.7c-0.9,1.5-1.6,3.4-2,5.3c-0.3,2.2-0.3,3.9,0,5.8
			c0.2,1.9,0.8,3.8,1.5,5.7c0.8,1.8,1.9,3.6,3.1,5.2c2.5,3.2,5.7,5.7,9,7.7c6.7,4,14.2,6.3,21.9,8.1c15.4,3.4,31.9,4.4,48.2,4.4
			c16.3,0,32.8-1,48.2-4.4c7.7-1.8,15.2-4.1,21.9-8.1c3.4-2,6.5-4.4,9.1-7.6c1.3-1.5,2.3-3.3,3.2-5.1c0.8-1.9,1.4-3.8,1.6-5.7
			c0.2-1,0.2-1.9,0.2-2.8c0.1-0.9-0.1-1.9-0.2-3c-0.4-2-1.1-3.9-2-5.4c-0.6-1.1-1.4-2-2.1-2.9c3.5-2.2,7.2-4.9,11-8.3
			C414.5,447.5,422.7,438.1,429.2,426.6z"/>
	</g>
	<g>
		<g>
			<g>
				<path class="st2" d="M232.1,468.8c0,21.4,35.7,28.6,79.7,28.6c44,0,79.7-7.1,79.7-28.6c0-15.8-35.7-28.6-79.7-28.6
					C267.8,440.2,232.1,453,232.1,468.8z"/>
			</g>
			<g>
				<ellipse class="st3" cx="311.9" cy="460.7" rx="72.9" ry="17.9"/>
			</g>
			<g>
				<g>
					<path class="st4" d="M241.1,458.3c3.1-3,6.7-5.2,9.6-6.9c5.9-3.5,9.6-5.3,9.3-6.3c-0.3-0.9-4.5-0.8-11.5,1.4
						c-3.5,1.2-7.7,2.8-12.2,6.1c-2.2,1.6-4.5,3.7-6.4,6.8c-0.9,1.5-1.6,3.4-2,5.3c-0.3,2.2-0.3,3.9,0,5.8c0.2,1.9,0.8,3.8,1.5,5.7
						c0.8,1.8,1.9,3.6,3.1,5.2c2.5,3.2,5.7,5.7,9,7.7c6.7,4,14.2,6.3,21.9,8.1c15.4,3.4,31.9,4.4,48.2,4.4c16.3,0,32.8-1,48.2-4.4
						c7.7-1.8,15.2-4.1,21.9-8.1c3.4-2,6.5-4.4,9.1-7.6c1.3-1.5,2.3-3.3,3.2-5.1c0.8-1.9,1.4-3.8,1.6-5.7c0.2-1,0.2-1.9,0.2-2.8
						c0.1-0.9-0.1-1.9-0.2-3c-0.4-2-1.1-3.9-2-5.4c-1.8-3.1-4.1-5.2-6.3-6.8c-4.5-3.3-8.7-4.9-12.2-6.1c-7-2.3-11.2-2.3-11.5-1.4
						c-0.3,1,3.4,2.9,9.3,6.3c2.9,1.8,6.5,3.9,9.6,6.9c1.5,1.5,2.9,3.2,3.7,5c0.8,1.8,0.8,3.3,0.3,5.7c-0.9,4.3-4.5,8-9.9,10.8
						c-5.4,2.8-12,4.7-19.1,6c-14.2,2.6-30.1,3.4-45.9,3.4c-15.8,0-31.7-0.8-45.9-3.4c-7-1.4-13.7-3.2-19.1-6
						c-5.4-2.8-9-6.5-9.8-10.8c-0.3-1-0.3-2.3-0.3-3c0.1-0.8,0.3-1.7,0.7-2.6C238.1,461.5,239.5,459.8,241.1,458.3z"/>
				</g>
			</g>
			<g>
				<path class="st2" d="M161.8,338.4c0,34.4,13.1,79.4,75,117.1L222,284.6C222,284.6,161.8,303.9,161.8,338.4z"/>
			</g>
			<g>
				<g>
					<path class="st4" d="M169.9,331.4c0.6-2.8,1.7-5.4,3.2-7.9c2.8-4.9,6.8-9.1,10.7-12.7c7.9-7.1,15.6-11.8,21.5-15.5
						c12-7.3,17.4-10.7,16.7-12.8c-0.3-1-2.2-1.5-5.7-1.1c-3.5,0.4-8.8,1.6-15.8,4.2c-7,2.7-15.9,6.7-25.8,14.4
						c-2.5,1.9-5,4.1-7.4,6.7c-2.5,2.5-4.9,5.6-7,9c-2.1,3.5-4.1,7.5-5.1,12.2c-0.5,2.3-0.9,4.7-0.9,7.2c-0.1,1.3,0,2.2,0,3.3
						c0,1.1,0.1,2.1,0.1,3.2c0.4,8.7,1.6,17.5,3.8,26.2c2.1,8.7,5.4,17.2,9.1,25.2c7.7,16,18.2,29.7,28.9,39.8
						c10.6,10.2,21.2,17,28.7,21.5c7.8,4.1,12.6,6,13.2,5.1c0.6-0.9-3.2-4.5-9.7-9.9c-6.3-5.8-15.4-13.6-24.3-24.1
						c-9-10.4-17.6-23.6-23.9-38.2c-3-7.4-5.7-15-7.3-22.8c-1.7-7.8-2.8-15.7-3.1-23.4c0-1-0.1-1.9-0.1-2.9c0-0.9-0.1-2,0-2.6
						C169.4,334.2,169.6,332.8,169.9,331.4z"/>
				</g>
			</g>
			<g>
				<path class="st2" d="M385.9,261.8c-19.9,3.2-33.3,22.2-25.9,67.9l71.9-11.7C424.5,272.3,405.7,258.6,385.9,261.8z"/>
			</g>
			<g>
				<g>
					<path class="st4" d="M433.3,297.8c-0.4-1.8-0.8-3.7-1.5-5.6c-2.3-7.8-6.1-16.8-13.1-25.2c-3.6-4.1-8.2-7.9-13.7-10.5
						c-5.5-2.6-12-3.7-18.2-3c-6.1,0.7-12.1,2.8-17.2,6.4c-5.1,3.6-8.8,8.6-11.2,13.6c-2.4,5-3.8,10.1-4.4,14.9
						c-0.2,1.2-0.4,2.4-0.5,3.5c-0.1,1.1-0.1,2.3-0.2,3.4c-0.2,2.2-0.1,4.4,0,6.4c0,1,0.1,2,0.1,3c0.1,1,0.2,1.9,0.3,2.8
						c0.2,1.8,0.4,3.6,0.7,5.2c0.6,3.2,1.1,6,1.9,8.2c1.4,4.5,2.6,6.9,3.6,6.7c1-0.2,1.5-2.9,1.7-7.4c0.1-2.3,0.3-5,0.3-8.1
						c0-1.5,0.2-3.2,0.3-4.9c0-0.9,0.1-1.7,0.1-2.6c0.1-0.9,0.2-1.8,0.3-2.7c0.2-1.8,0.3-3.8,0.7-5.7c0.1-1,0.3-2,0.5-3
						c0.2-1,0.5-2,0.7-3c0.9-4,2.3-8,4.3-11.6c2-3.6,4.6-6.8,7.9-9c3.3-2.2,7.4-3.6,11.5-4.1c4.1-0.5,8.2,0.2,11.9,1.8
						c3.8,1.6,7.2,4.2,10.2,7.2c5.9,6.2,10,13.8,13,20.6c0.8,1.7,1.5,3.3,2.1,4.9c0.6,1.6,1.3,3.1,1.8,4.5c1,2.9,2.1,5.4,2.9,7.5
						c1.6,4.2,2.9,6.6,3.9,6.5c1-0.2,1.4-2.9,1.3-7.5c0-2.3-0.5-5.1-0.9-8.4C434.1,301.3,433.7,299.6,433.3,297.8z"/>
				</g>
			</g>
			<g>
				<ellipse class="st2" cx="350.1" cy="298.3" rx="36.4" ry="62.8"/>
			</g>
			<g>
				<g>
					<path class="st4" d="M374.3,238.7c-2.8-3.1-6.4-6-10.7-8.1c-4.3-2.1-9.4-3.3-14.4-3.2c-4.9,0-10,1-14.7,3.2
						c-4.7,2.2-8.8,5.5-12,9.2c-0.8,0.9-1.5,1.9-2.2,2.9l-1,1.5l-0.9,1.5c-0.6,1-1.1,2-1.7,3c-0.4,1-0.9,2.1-1.3,3.1
						c-3.4,8.2-4.5,16-5,22.6c-0.7,13.3,1.2,21.8,3.1,21.8c2.2,0,3.3-8.5,6-20.5c1.4-5.9,3.2-12.8,6.4-19.2c0.4-0.8,0.8-1.6,1.2-2.4
						c0.5-0.7,0.9-1.5,1.4-2.2l0.7-1.1l0.8-1c0.5-0.7,1-1.4,1.6-2c2.3-2.6,5-4.6,8-6c3-1.4,6.3-2.2,9.8-2.3c3.3-0.2,6.5,0.4,9.4,1.6
						c5.9,2.4,10.6,7.2,14.1,11.8c3.4,4.7,5.8,9.2,7.5,12.4c1.8,3.2,3.1,5.1,4.1,4.8c1-0.2,1.4-2.5,1-6.4c-0.4-3.9-1.6-9.4-4.8-15.6
						C379.2,245.1,377.1,241.8,374.3,238.7z"/>
				</g>
			</g>
			<g>
				<path class="st2" d="M208.4,129.4c-27.3,8.6-17,54.6-10.2,94.5c9.9,57.8,16.8,112,16.8,112l56.6-50c0,0-12.3-36.5-24.5-84.5
					C238.7,168.7,229.8,122.6,208.4,129.4z"/>
			</g>
			<g>
				<path class="st2" d="M295.2,103c-29.7-1.5-29.3,45.4-30.7,87.4c-2.1,61-1.8,88.9-1.8,88.9l61.2-4.8c0,0-0.5-35.4-3-86.9
					C319.2,152.7,317.5,104.1,295.2,103z"/>
			</g>
			<g>
				<path class="st2" d="M311.8,262.1c-67.1,0-121.5,27.2-121.5,109.2c0,60.3,54.4,109.2,121.5,109.2c75,0,138.1-56.2,120.2-162.4
					C426.1,283.5,371.9,262.1,311.8,262.1z"/>
			</g>
			<g>
				<g>
					<path class="st4" d="M415.1,415c-5.5,10.6-12.3,19.6-18.8,26.6c-6.5,7.2-13,12.1-17.3,15.9c-4.6,3.5-7.1,5.9-6.6,6.8
						c0.5,0.9,3.8,0.1,9.4-2.2c5.4-2.7,13.1-6.8,20.9-13.8c7.9-6.9,16-16.3,22.5-27.7c6.6-11.4,11.4-24.8,14-38.5
						c2.6-13.7,3-27.6,2.3-40.5c-0.6-6.4-1-12.6-2.1-18.4c-0.5-2.9-1-5.7-1.4-8.4c-0.5-2.8-1.3-5.5-2-8c-3-10-6.7-17.8-9.8-22.9
						c-3.1-5.2-5.6-7.7-6.5-7.2c-1.9,1,3.6,13.2,7.3,32.3c0.4,2.4,0.9,4.8,1.1,7.4c0.2,2.6,0.5,5.4,0.8,8.2
						c0.7,5.6,0.7,11.5,1.1,17.6c0.1,12.2-0.5,25.1-2.9,37.7C424.7,392.3,420.6,404.5,415.1,415z"/>
				</g>
			</g>
			<g>
				<g>
					<g>
						<path class="st4" d="M267.3,324.6c-4.1,0.2-4.6,27.1-1.6,53.7c1.5,13.3,3.9,26.6,6.7,36.3c2.8,9.8,5.8,16,7.8,15.5
							c2-0.5,2-7.2,1.3-17.1c-0.7-9.9-2.1-23-3.5-36.1C274.9,350.7,271.4,324.4,267.3,324.6z"/>
					</g>
				</g>
				<g>
					<g>
						<path class="st4" d="M317.2,430.2c8.2-0.2,5.8-105.8-2.4-105.6C306.7,324.8,309,430.4,317.2,430.2z"/>
					</g>
				</g>
				<g>
					<g>
						<path class="st4" d="M354.8,377.1c-1.2,13.1-2.5,26.1-3.2,36c-0.7,9.9-0.8,16.5,1.2,17.1c2,0.5,5.1-5.7,7.9-15.5
							c2.7-9.8,5.1-23.1,6.4-36.4c2.7-26.8,0.8-53.7-3.2-53.7C359.6,324.6,357.4,351,354.8,377.1z"/>
					</g>
				</g>
			</g>
		</g>
		<g>
			<path class="st3" d="M215.7,335.7l-5.5-42.7C201.3,299.6,167,322.6,215.7,335.7z"/>
		</g>
		<g>
			<g>
				<path class="st4" d="M202.5,138.3c1.3-1.7,2.9-3,4.8-4c0.9-0.5,2-0.9,3-1.3c0.4-0.1,0.8-0.2,1.2-0.3c0.4,0,0.8-0.1,1.1-0.1
					c1.4,0,2.9,0.5,4.5,1.7c1.6,1.1,3.2,2.9,4.6,4.8c2.9,3.9,5.2,8.7,7.3,13.5c4.1,9.7,7.2,19.7,10,29.3c2.7,9.7,5.3,18.8,7.7,27.2
					c9.7,33.8,16.2,56.2,18.1,55.8c2.1-0.4-1.5-23.7-9.2-58.1c-1.9-8.6-4-17.8-6.4-27.7c-2.5-9.9-5.3-20.3-9.5-30.9
					c-2.2-5.3-4.6-10.7-8.3-16c-1.9-2.6-4.1-5.2-7.1-7.5c-3-2.2-7-4-11.4-4.1c-1.1-0.1-2.1,0.1-3.2,0.2c-1,0.2-2,0.4-3,0.7
					c-1.7,0.6-3.4,1.2-5,2.1c-3.3,1.7-6.3,4.2-8.6,7c-4.7,5.8-6.6,12.7-7.7,19c-1,6.4-1.1,12.6-0.8,18.7c0.3,6.1,0.9,12,1.7,17.8
					c1.6,11.7,3.8,22.8,5.8,33.6c0.3,1.4,0.4,2.7,0.9,4.3c0.3,1.3,0.6,2.6,0.9,3.9c0.6,2.6,1.2,5.2,1.8,7.8c1.2,5.1,2.3,10.2,3.4,15
					c2.2,9.8,4.2,19.1,5.9,27.6c3.5,17.1,6.2,31.4,7.9,41.4c1.7,10,2.4,15.8,3.5,15.8c1,0.1,2.1-5.9,1.9-16.3
					c-0.2-10.4-1.6-25.1-4.2-42.6c-1.3-8.7-2.8-18.2-4.7-28.1c-0.9-5-1.9-10.1-2.9-15.3c-0.5-2.6-1.1-5.2-1.6-7.9
					c-0.3-1.3-0.6-2.7-0.8-4c-0.3-1.1-0.4-2.5-0.7-3.8c-1.7-10.8-3.7-22-5.1-33.2c-0.7-5.6-1.3-11.2-1.5-16.8
					c-0.2-5.6-0.1-11.1,0.7-16.3C198.2,146.5,199.8,141.6,202.5,138.3z"/>
			</g>
		</g>
		<g>
			<g>
				<path class="st4" d="M321.1,125.5c-1.5-5.6-3.2-11.4-6.4-17.1c-1.6-2.8-3.5-5.6-6.2-8.2c-2.7-2.5-6.3-4.6-10.2-5.4
					c-1-0.2-2-0.3-2.9-0.4c-1-0.1-1.9-0.1-2.8,0c-1.8,0-3.6,0.4-5.4,0.9c-3.6,1-7,2.9-9.7,5.3c-5.4,4.9-8.3,10.8-10.4,16.5
					c-4,11.4-5.3,22.6-6.3,33.3c-0.9,10.7-1.1,21-1.3,30.6c-0.1,9.7-0.2,18.8-0.2,27.2c0.1,16.9,0.7,31,1.7,40.8
					c1,9.8,2.7,15.5,3.8,15.3c0.9-0.2,1-5.7,1.5-15.4c0.5-9.8,1.2-23.7,2.1-40.5c0.5-8.4,1-17.5,1.5-27.1c0.5-9.6,1.1-19.7,2.2-29.9
					c1.1-10.2,2.7-20.8,6.2-30.2c1.8-4.6,4.1-8.9,7.1-11.5c1.5-1.3,3.1-2.2,4.9-2.7c1.8-0.5,4-0.6,5.5-0.3c1.6,0.3,3,1.1,4.4,2.4
					c1.4,1.3,2.7,3.1,3.9,5.1c2.3,4.1,4,9.1,5.3,14.1c2.6,10.1,4,20.7,5,31c1,10.3,1.7,20.4,2.3,30c0.6,9.6,1.2,18.7,1.7,27
					c2.1,33.5,3.4,55.9,5.4,55.9c2,0,3.8-22.5,3.8-56.2c0-8.4-0.1-17.6-0.4-27.2c-0.2-9.7-0.6-19.9-1.4-30.5
					C325.1,147.9,323.9,136.8,321.1,125.5z"/>
			</g>
		</g>
	</g>
</g>
</svg>
